<svg xmlns="http://www.w3.org/2000/svg" xmlns:xlink="http://www.w3.org/1999/xlink" viewBox="0 0 45 45">
  <defs><style>.contact-1,.contact-2{fill:none;}.contact-2{clip-rule:evenodd;}.contact-3{isolation:isolate;}.contact-4{clip-path:url(#clip-path);}.contact-5{clip-path:url(#clip-path-2);}.contact-6{clip-path:url(#clip-path-3);}.contact-7{clip-path:url(#clip-path-5);}.contact-8{fill:#fff;}</style><clipPath id="clip-path"><rect class="contact-1" x="5.82" y="12.5" width="33.35" height="21"/></clipPath><clipPath id="clip-path-2"><rect class="contact-1" x="6.22" y="13.37" width="32.16" height="19.54"/></clipPath><clipPath id="clip-path-3"><rect class="contact-1" x="4.59" y="12.5" width="35.82" height="22.24"/></clipPath><clipPath id="clip-path-5"><path class="contact-2" d="M38.35,15a1.65,1.65,0,0,0-1.65-1.64h0l-28.84,0a1.65,1.65,0,0,0-1.64,1.65l0,16.21a1.65,1.65,0,0,0,1.65,1.64h0l28.84,0a1.65,1.65,0,0,0,1.65-1.65ZM34.9,15,22.3,23.77,9.67,15ZM27.63,25.43l7.47,5.8-25.63,0L17,25.43a.82.82,0,1,0-1-1.3L7.89,30.4l0-14.6,14,9.65a.83.83,0,0,0,.47.15.82.82,0,0,0,.47-.15l13.94-9.69,0,14.64-8.09-6.28a.82.82,0,0,0-1,1.3Z"/></clipPath></defs><title>contact</title><g id="Layer_2" data-name="Layer 2"><g id="Layer_1-2" data-name="Layer 1"><g class="contact-3"><g class="contact-4"><g class="contact-5"><g class="contact-6"><g class="contact-3"><g class="contact-4"><g class="contact-7"><g class="contact-4"><rect class="contact-8" x="0.04" y="7.19" width="44.51" height="31.89"/></g></g></g></g></g></g></g></g><rect class="contact-1" width="45" height="45"/></g></g>
</svg>
