<?xml version="1.0" encoding="UTF-8"?>
<svg width="48px" height="48px" viewBox="0 0 48 48" version="1.1" xmlns="http://www.w3.org/2000/svg" xmlns:xlink="http://www.w3.org/1999/xlink">
    <!-- Generator: Sketch 45.2 (43514) - http://www.bohemiancoding.com/sketch -->
    <title>ic-1</title>
    <desc>Created with Sketch.</desc>
    <defs></defs>
    <g id="full-quality" stroke="none" stroke-width="1" fill="none" fill-rule="evenodd">
        <g id="ic-1">
            <path d="M36.4910129,38.9387392 L36.4910129,38.9387392 C36.1220738,39.1988019 35.751153,39.4257233 35.3509083,39.6791318 C34.7485986,40.0498054 34.1334549,40.4437014 33.5356879,40.9044744 C32.5804546,41.5713349 31.5793536,41.7692372 30.3767854,41.5136234 C30.2612784,41.4890717 30.1382148,41.4629137 30.024314,41.4308054 C27.7656611,40.7983965 25.8281762,39.4512297 24.3948935,38.3488842 C20.4814305,35.310142 17.288776,31.4971687 14.9130011,27.020647 C12.9576305,23.2946553 11.8229399,19.9913254 11.3276386,16.5993749 C11.0185904,14.5287363 11.0742965,12.976785 11.4894728,11.5915037 C11.7590222,10.7055585 12.2643266,10.0321966 13.0405402,9.5281176 L16.2267796,7.45801907 C16.6798677,7.18425106 17.1225161,7.07637728 17.5154558,7.1598992 C18.0012329,7.26315431 18.3317606,7.64030151 18.5255718,7.9387445 L18.5442729,7.96754163 C18.9206984,8.50563382 19.270783,9.05617952 19.6384213,9.64091986 C19.8244465,9.93883618 20.0191077,10.2385881 20.2113127,10.5445877 L21.8678285,13.0968312 C22.511545,14.0866348 22.3509259,14.8422881 21.3600428,15.4857751 C21.089088,15.6617353 20.8256897,15.8393016 20.5563411,16.0077052 C19.7688319,16.533077 19.0203359,17.0182255 18.2221566,17.4770176 C18.2036017,17.4899977 18.1860324,17.4930329 18.175034,17.5076193 C17.3713323,18.0295493 17.3569518,18.7023306 17.4025899,19.1723683 C17.4053279,19.1966441 17.4089159,19.2222289 17.4105743,19.2462752 C17.677191,20.6884706 18.182477,22.101289 19.0375495,23.837806 L19.0434998,23.8469687 C20.6143144,26.919184 22.4223152,29.4381867 24.5638291,31.5293812 C24.8374452,31.7973996 25.1268783,32.0281621 25.4030339,32.2470761 C25.6497873,32.4450729 25.8854223,32.6316802 26.07928,32.8184337 C26.1062937,32.8399715 26.1325513,32.8703748 26.1595651,32.8919126 C26.3941206,33.0782905 26.6271686,33.1921382 26.8819318,33.2462897 C27.5209985,33.3821276 28.0077024,33.0669889 28.1663161,32.9630535 L31.3625682,30.8883136 C31.6806456,30.6817517 32.1634855,30.4537973 32.6503421,30.5572819 C33.1274832,30.6587013 33.4564047,31.0434051 33.639447,31.3553549 L36.9962901,36.52444 C37.6237617,37.4791989 37.4516699,38.2888275 36.4910129,38.9387392 Z M35.4570771,30.2354543 C34.8744179,29.2981185 34.061372,28.6909136 33.1060103,28.4878452 C32.1571257,28.2861535 31.1614484,28.5010045 30.2176879,29.1138898 L27.2662792,31.0240436 C27.0882074,30.8744938 26.9089884,30.7303416 26.7379465,30.590184 C26.4901136,30.3919578 26.2555581,30.20558 26.0617004,30.0188265 C24.0875571,28.0850616 22.4151468,25.7562232 20.9472666,22.8897964 C20.242095,21.4672111 19.8123752,20.3040081 19.5626771,19.1644024 C20.3182552,18.7202489 21.0322331,18.2435593 21.7249705,17.787177 C21.986992,17.6160877 22.2503903,17.4385214 22.511953,17.2695911 C24.4743142,15.9942883 24.9199174,13.8978901 23.6456941,11.9357583 L21.9889488,9.38459428 C21.800238,9.09400505 21.6066563,8.79448254 21.4279582,8.49925193 C21.0662701,7.9236743 20.6866633,7.32623549 20.2829007,6.75751052 C19.6930607,5.85926637 18.8819026,5.27502829 17.941654,5.07517228 C17.0014054,4.87531627 16.0087111,5.0761337 15.0807675,5.65176297 C15.0716048,5.65771332 15.0716048,5.65771332 15.0613625,5.6634342 L11.8794673,7.75025199 C10.6830774,8.52719668 9.86396219,9.609989 9.44444174,10.9785511 C8.78143108,13.1900815 8.99864379,15.4273655 9.21545217,16.9074897 C9.74830754,20.5421042 10.9501055,24.0605315 13.0222145,27.9963742 C15.5408083,32.7458326 18.9265488,36.7916547 23.0894509,40.0210665 C24.683481,41.2376876 26.838197,42.7359581 29.4458795,43.4673776 C29.606199,43.5093525 29.7751546,43.5531631 29.9284442,43.5857458 C31.7085475,43.9641184 33.3408083,43.6419979 34.7823699,42.6193009 C34.7931388,42.605794 34.8109376,42.6016793 34.8219359,42.5870929 C35.3254578,42.1875234 35.8811038,41.8452926 36.4666942,41.4789632 C36.8653327,41.2331112 37.2747401,40.9737524 37.6798034,40.6976743 C38.6116632,40.0664636 39.2088031,39.2264562 39.4102653,38.278651 C39.6135632,37.3222099 39.4005478,36.3178966 38.7858269,35.3827721 L35.4570771,30.2354543 Z" id="Fill-1-Copy" fill="#FFFFFF" opacity="0.6"></path>
            <rect id="Rectangle-11" x="0" y="0" width="48" height="48"></rect>
        </g>
    </g>
</svg>