<svg xmlns="http://www.w3.org/2000/svg" xmlns:xlink="http://www.w3.org/1999/xlink" viewBox="0 0 40.48 48.74">
  <defs>
    <style>
      .phone-1,
      .phone-2{fill:none;}
      .phone-2{clip-rule:evenodd;}
      .phone-3{clip-path:url(#clip-path);}
      .phone-4{clip-path:url(#clip-path-2);}
      .phone-5{clip-path:url(#clip-path-3);}
      .phone-6{fill:#fff;opacity:0.6;}
    </style>
    <clipPath id="clip-path" transform="translate(-4)"><rect class="phone-1" x="0.24" y="0.37" width="48" height="48"/>
    </clipPath>
    <clipPath id="clip-path-2" transform="translate(-4)">
      <path class="phone-2" d="M35.46,30.24a3.67,3.67,0,0,0-2.35-1.75,3.8,3.8,0,0,0-2.89.63l-3,1.91-.53-.43c-.25-.2-.48-.38-.68-.57a27,27,0,0,1-5.11-7.13,16,16,0,0,1-1.38-3.73c.76-.44,1.47-.92,2.16-1.38l.79-.52a3.62,3.62,0,0,0,1.13-5.33L22,9.38c-.19-.29-.38-.59-.56-.89-.36-.58-.74-1.17-1.15-1.74a3.73,3.73,0,0,0-2.34-1.68,3.86,3.86,0,0,0-2.86.58h0L11.88,7.75A5.76,5.76,0,0,0,9.44,11a13.82,13.82,0,0,0-.23,5.93A33.91,33.91,0,0,0,13,28,37.07,37.07,0,0,0,23.09,40a19.24,19.24,0,0,0,6.36,3.45l.48.12a5.94,5.94,0,0,0,4.85-1l0,0a17.86,17.86,0,0,1,1.64-1.11c.4-.25.81-.51,1.21-.78a3.93,3.93,0,0,0,1.73-2.42,3.78,3.78,0,0,0-.62-2.9Zm1,8.7h0c-.37.26-.74.49-1.14.74a20.71,20.71,0,0,0-1.82,1.23,3.8,3.8,0,0,1-3.16.61L30,41.43a17.08,17.08,0,0,1-5.63-3.08A35,35,0,0,1,14.91,27,32,32,0,0,1,11.33,16.6a11.25,11.25,0,0,1,.16-5A3.62,3.62,0,0,1,13,9.53l3.19-2.07a1.8,1.8,0,0,1,1.29-.3,1.69,1.69,0,0,1,1,.78l0,0c.38.54.73,1.09,1.09,1.67l.57.9,1.66,2.55a1.5,1.5,0,0,1-.51,2.39l-.8.52c-.79.53-1.54,1-2.33,1.47l0,0a1.61,1.61,0,0,0-.77,1.66v.07A17.33,17.33,0,0,0,19,23.84h0a29,29,0,0,0,5.52,7.68,10.44,10.44,0,0,0,.84.72c.25.2.48.38.68.57l.08.07a1.71,1.71,0,0,0,.72.35A1.68,1.68,0,0,0,28.17,33l3.2-2.07a1.78,1.78,0,0,1,1.29-.33,1.61,1.61,0,0,1,1,.8L37,36.52A1.56,1.56,0,0,1,36.49,38.94Z"/>
    </clipPath>
    <clipPath id="clip-path-3" transform="translate(-4)"><rect class="phone-1" width="48" height="48"/>
    </clipPath>
  </defs>
  <title>ic-1</title>
  <g id="Layer_2" data-name="Layer 2">
    <g id="Layer_1-2" data-name="Layer 1">
      <g class="phone-3">
        <g class="phone-4">
          <g class="phone-5"><rect class="phone-6" width="40.48" height="48.74"/>
          </g>
        </g>
      </g>
    </g>
  </g>
</svg>
