<svg xmlns="http://www.w3.org/2000/svg" xmlns:xlink="http://www.w3.org/1999/xlink" viewBox="0 0 51.27 35.08"><defs><style>.cls-1,.cls-2{fill:none;}.cls-2{clip-rule:evenodd;}.cls-3{clip-path:url(#clip-path);}.cls-4{opacity:0.6;}.cls-4,.cls-7{isolation:isolate;}.cls-5{clip-path:url(#clip-path-2);}.cls-6{clip-path:url(#clip-path-3);}.cls-8{clip-path:url(#clip-path-6);}.cls-9{fill:#fff;}</style><clipPath id="clip-path" transform="translate(0 -6)"><rect class="cls-1" x="2" width="48" height="48"/></clipPath><clipPath id="clip-path-2" transform="translate(0 -6)"><rect class="cls-1" x="5" y="11" width="42" height="26"/></clipPath><clipPath id="clip-path-3" transform="translate(0 -6)"><rect class="cls-1" x="5" y="11" width="41.27" height="25.08"/></clipPath><clipPath id="clip-path-6" transform="translate(0 -6)"><path class="cls-2" d="M46.25,13.11A2.12,2.12,0,0,0,44.13,11h0l-37,.05A2.11,2.11,0,0,0,5,13.17L5,34a2.11,2.11,0,0,0,2.11,2.11h0l37-.05a2.12,2.12,0,0,0,2.11-2.12Zm-4.44,0L25.64,24.36,9.44,13.16ZM32.48,26.48l9.59,7.44L9.18,34l9.65-7.48a1.06,1.06,0,1,0-1.3-1.67L7.14,32.87l0-18.74L25,26.51a1.06,1.06,0,0,0,.6.19,1.05,1.05,0,0,0,.6-.19L44.13,14.08l0,18.79L33.77,24.81a1.06,1.06,0,0,0-1.29,1.67Z"/></clipPath></defs><title>ic-2</title><g id="Layer_2" data-name="Layer 2"><g id="Layer_1-2" data-name="Layer 1"><g class="cls-3"><g class="cls-4"><g class="cls-5"><g class="cls-6"><g class="cls-5"><g class="cls-7"><g class="cls-5"><g class="cls-8"><g class="cls-5"><rect class="cls-9" width="51.27" height="35.08"/></g></g></g></g></g></g></g></g></g></g></g></svg>