<svg xmlns="http://www.w3.org/2000/svg" xmlns:xlink="http://www.w3.org/1999/xlink" viewBox="0 0 43.22 43.22"><defs><style>.cls-1,.cls-2{fill:none;}.cls-2{clip-rule:evenodd;}.cls-3{clip-path:url(#clip-path);}.cls-4{opacity:0.6;}.cls-4,.cls-7{isolation:isolate;}.cls-5{clip-path:url(#clip-path-2);}.cls-6{clip-path:url(#clip-path-3);}.cls-8{clip-path:url(#clip-path-5);}.cls-9{clip-path:url(#clip-path-6);}.cls-10{fill:#fff;}</style><clipPath id="clip-path" transform="translate(-2 -2)"><rect class="cls-1" width="48" height="48"/></clipPath><clipPath id="clip-path-2" transform="translate(-2 -2)"><rect class="cls-1" x="7" y="7" width="34" height="34"/></clipPath><clipPath id="clip-path-3" transform="translate(-2 -2)"><rect class="cls-1" x="7" y="7" width="33.22" height="33.22"/></clipPath><clipPath id="clip-path-5" transform="translate(-2 -2)"><rect class="cls-1" x="6" y="7" width="35" height="34"/></clipPath><clipPath id="clip-path-6" transform="translate(-2 -2)"><path class="cls-2" d="M37.88,30.88c-1-1-2.62-1.84-5.21-3.13a28.33,28.33,0,0,1-4-2.23,14.05,14.05,0,0,0,3.48-8.44,13.28,13.28,0,0,0-1-6.09c-.92-1.82-3-4-7.52-4S17,9.16,16.09,11a13.26,13.26,0,0,0-1,6.09,14,14,0,0,0,3.48,8.45,28.21,28.21,0,0,1-4,2.23C12,29,10.33,29.9,9.35,30.88,7.18,33.06,7,36.7,7,37.41a2.77,2.77,0,0,0,2.77,2.81H37.46a2.77,2.77,0,0,0,2.77-2.81c0-.71-.18-4.35-2.35-6.53m.07,7.06a.69.69,0,0,1-.49.21H9.77a.69.69,0,0,1-.69-.7c0-.35.1-3.45,1.74-5.09a21.1,21.1,0,0,1,4.67-2.74A22.81,22.81,0,0,0,20,27l1.4-1.33-1.22-1.49a12,12,0,0,1-3-7.13,11.48,11.48,0,0,1,.8-5.16c1-1.88,2.86-2.84,5.67-2.84s4.71,1,5.67,2.84a11.49,11.49,0,0,1,.8,5.16,12,12,0,0,1-3,7.13l-1.22,1.5L27.24,27a22.87,22.87,0,0,0,4.5,2.58,21,21,0,0,1,4.67,2.74c1.33,1.33,1.72,3.83,1.74,5.09a.69.69,0,0,1-.2.5"/></clipPath></defs><title>ic-3</title><g id="Layer_2" data-name="Layer 2"><g id="Layer_1-2" data-name="Layer 1"><g class="cls-3"><g class="cls-4"><g class="cls-5"><g class="cls-6"><g class="cls-5"><g class="cls-7"><g class="cls-8"><g class="cls-9"><g class="cls-5"><rect class="cls-10" width="43.22" height="43.22"/></g></g></g></g></g></g></g></g></g></g></g></svg>