<svg xmlns="http://www.w3.org/2000/svg" viewBox="537.2 4660.5 29.4 29.4">
  <defs>
    <style>
      .cls-1 {
        fill: #fff;
      }
    </style>
  </defs>
  <g id="Group_93" data-name="Group 93" transform="translate(-29 4482)">
    <path id="Path_197" data-name="Path 197" class="cls-1" d="M582.4,191.4Z"/>
    <path id="Path_198" data-name="Path 198" class="cls-1" d="M580.9,178.5a14.7,14.7,0,1,0,14.7,14.7A14.724,14.724,0,0,0,580.9,178.5ZM577,200.4h-3.5V189.8H577Zm-1.8-12h0a1.81,1.81,0,1,1,0-3.6,1.907,1.907,0,0,1,2,1.8A1.847,1.847,0,0,1,575.2,188.4Zm14.5,12h-3.5v-5.7c0-1.4-.5-2.4-1.8-2.4a1.993,1.993,0,0,0-1.8,1.3,2.22,2.22,0,0,0-.1.9v5.9H579V189.8h3.5v1.5a3.567,3.567,0,0,1,3.2-1.7c2.3,0,4.1,1.5,4.1,4.8v6Z"/>
  </g>
</svg>
