<svg xmlns="http://www.w3.org/2000/svg" viewBox="575.1 4660.5 29.4 29.4">
  <defs>
    <style>
      .cls-1 {
        fill: #fff;
      }
    </style>
  </defs>
  <g id="Group_92" data-name="Group 92" transform="translate(-29 4482)">
    <path id="Path_194" data-name="Path 194" class="cls-1" d="M623.2,186.3h-8.8a2.476,2.476,0,0,0-2.5,2.5v8.8a2.476,2.476,0,0,0,2.5,2.5h8.8a2.476,2.476,0,0,0,2.5-2.5v-8.8A2.476,2.476,0,0,0,623.2,186.3Zm-4.4,11.5a4.6,4.6,0,1,1,4.6-4.6A4.588,4.588,0,0,1,618.8,197.8Zm4.7-8.2a1.1,1.1,0,1,1,1.1-1.1A1.11,1.11,0,0,1,623.5,189.6Z"/>
    <path id="Path_195" data-name="Path 195" class="cls-1" d="M618.8,190.6a2.6,2.6,0,1,0,2.6,2.6A2.647,2.647,0,0,0,618.8,190.6Z"/>
    <path id="Path_196" data-name="Path 196" class="cls-1" d="M618.8,178.5a14.7,14.7,0,1,0,14.7,14.7A14.724,14.724,0,0,0,618.8,178.5Zm8.8,19.1a4.481,4.481,0,0,1-4.5,4.5h-8.8a4.481,4.481,0,0,1-4.5-4.5v-8.8a4.481,4.481,0,0,1,4.5-4.5h8.8a4.481,4.481,0,0,1,4.5,4.5Z"/>
  </g>
</svg>
