<svg xmlns="http://www.w3.org/2000/svg" viewBox="0 0 233.16 56.73">
  <defs><style>.logo-1{fill:#003473;}.logo-2{fill:#626b73;}.logo-3{fill:#35414a;}.logo-4{fill:#43a72d;}.logo-5,.logo-6{fill:none;stroke:#fff;stroke-miterlimit:10;stroke-width:2.5px;}.logo-6{stroke-linecap:round;}</style></defs><title>logo</title><g id="Layer_2" data-name="Layer 2"><g id="Layer_1-2" data-name="Layer 1"><path class="logo-1" d="M26.37.17a28.36,28.36,0,1,0,31.3,25.07A28.4,28.4,0,0,0,26.37.17Z"/><polygon class="logo-2" points="71.82 18.43 68.81 12.17 65.64 12.17 65.64 23.16 67.92 23.16 67.92 15.78 71.16 22.24 72.45 22.24 75.71 15.77 75.71 23.16 77.98 23.16 77.98 12.17 74.83 12.17 71.82 18.43"/><path class="logo-2" d="M87.21,18.23a3.16,3.16,0,0,1-.66,2.12,2.43,2.43,0,0,1-3.52,0,3.16,3.16,0,0,1-.66-2.12V12.17H80.1V18.3A4.93,4.93,0,0,0,81.42,22a5,5,0,0,0,6.74,0,4.93,4.93,0,0,0,1.32-3.67V12.17H87.21Z"/><polygon class="logo-2" points="90.62 14.29 93.8 14.29 93.8 23.16 96.07 23.16 96.07 14.29 99.25 14.29 99.25 12.17 90.62 12.17 90.62 14.29"/><path class="logo-2" d="M107.49,18.23a3.16,3.16,0,0,1-.66,2.12,2.43,2.43,0,0,1-3.52,0,3.16,3.16,0,0,1-.66-2.12V12.17h-2.27V18.3A4.93,4.93,0,0,0,101.7,22a5,5,0,0,0,6.74,0,4.93,4.93,0,0,0,1.32-3.67V12.17h-2.27Z"/><path class="logo-2" d="M114.89,12.17l-4.84,11h2.44l1-2.38h4.92l1.05,2.38h2.44l-4.84-11Zm2.63,6.46h-3L116,15.19Z"/><polygon class="logo-2" points="124.88 20.98 124.88 12.17 122.61 12.17 122.61 23.16 129.67 23.16 129.67 20.98 124.88 20.98"/><path class="logo-3" d="M78.68,31.11,74.9,38.75H73l-3.76-7.64v8.8H66.16v-14h4.22L74,33.61l3.62-7.68h4.2v14H78.68Z"/><path class="logo-3" d="M88.74,36.3a2.55,2.55,0,0,0,2.1,1,2.53,2.53,0,0,0,2.09-1,4.15,4.15,0,0,0,.77-2.65V25.93h3.12v7.82a6.21,6.21,0,0,1-1.68,4.67,6.48,6.48,0,0,1-8.61,0,6.19,6.19,0,0,1-1.69-4.66V25.93H88v7.72A4.11,4.11,0,0,0,88.74,36.3Z"/><path class="logo-3" d="M99.86,39.91v-14H103v11.2h6v2.78Z"/><path class="logo-3" d="M115.7,28.63V39.91h-3.12V28.63h-4v-2.7h11v2.7Z"/><path class="logo-3" d="M121.74,25.93h3.12v14h-3.12Z"/><path class="logo-3" d="M137.88,25.93H141v14h-3.12l-6.66-8.76v8.76H128.1v-14H131l6.86,9Z"/><path class="logo-3" d="M149.4,34.83l3.56-8.9h3.38l-5.62,14h-2.64l-5.62-14h3.38Z"/><path class="logo-3" d="M167.88,25.93v2.78h-7v2.88h6.26v2.66h-6.26v2.9h7.18v2.76H157.8v-14Z"/><path class="logo-3" d="M182,30.57q0,3.36-2.66,4.34l3.54,5h-3.84L176,35.45H173.8v4.46h-3.12v-14H176q3.26,0,4.65,1.1A4.24,4.24,0,0,1,182,30.57Zm-3.76,1.66a2.11,2.11,0,0,0,.58-1.65,1.77,1.77,0,0,0-.6-1.55,3.84,3.84,0,0,0-2.1-.42H173.8v4.14h2.28A3.35,3.35,0,0,0,178.26,32.23Z"/><path class="logo-3" d="M188.29,28.72a1.2,1.2,0,0,0-.45,1,1.11,1.11,0,0,0,.55,1,10,10,0,0,0,2.54.85A7.16,7.16,0,0,1,194,33a3.63,3.63,0,0,1,1.1,2.86,3.78,3.78,0,0,1-1.41,3.05A5.62,5.62,0,0,1,190,40.07a8.59,8.59,0,0,1-6-2.46l1.86-2.28a6.61,6.61,0,0,0,4.18,2,2.19,2.19,0,0,0,1.35-.37,1.19,1.19,0,0,0,.49-1,1.17,1.17,0,0,0-.52-1,6.8,6.8,0,0,0-2.06-.75,9,9,0,0,1-3.57-1.51,3.57,3.57,0,0,1-1.13-2.92A3.62,3.62,0,0,1,186,26.69a5.75,5.75,0,0,1,3.57-1.08,8.58,8.58,0,0,1,2.8.48,7.5,7.5,0,0,1,2.44,1.36l-1.58,2.28a6.16,6.16,0,0,0-3.76-1.38A1.88,1.88,0,0,0,188.29,28.72Z"/><path class="logo-3" d="M197.58,25.93h3.12v14h-3.12Z"/><path class="logo-3" d="M215.7,38a7.62,7.62,0,0,1-10.44,0,6.9,6.9,0,0,1-2.12-5.15,6.91,6.91,0,0,1,2.12-5.15,7.62,7.62,0,0,1,10.44,0,6.91,6.91,0,0,1,2.12,5.15A6.91,6.91,0,0,1,215.7,38Zm-1.06-5.14a4.57,4.57,0,0,0-1.2-3.19,4,4,0,0,0-5.9,0,4.83,4.83,0,0,0,0,6.37,4,4,0,0,0,5.9,0A4.54,4.54,0,0,0,214.64,32.84Zm-2.72-8.35h-2.86l2.54-3.54,3.1,1.3Z"/><path class="logo-3" d="M230,25.93h3.12v14H230l-6.66-8.76v8.76h-3.12v-14h2.92l6.86,9Z"/><path class="logo-4" d="M67.44,51.3a3,3,0,0,0,3.89,0,2.78,2.78,0,0,0,.7-2v-5h.83v5a3.48,3.48,0,1,1-6.95,0v-5h.83v5A2.77,2.77,0,0,0,67.44,51.3Z"/><path class="logo-4" d="M69.38,52.87a3.3,3.3,0,0,1-3.58-3.58V44.19h1v5.09a2.68,2.68,0,0,0,.67,1.95h0a2.89,2.89,0,0,0,3.75,0,2.7,2.7,0,0,0,.67-1.95V44.19h1v5.09a3.29,3.29,0,0,1-3.57,3.58ZM66,44.39v4.89a3.38,3.38,0,1,0,6.75,0V44.39h-.63v4.89a2.89,2.89,0,0,1-.72,2.09,3.09,3.09,0,0,1-4,0,2.88,2.88,0,0,1-.73-2.09V44.39Z"/><path class="logo-4" d="M80.21,47a2.45,2.45,0,0,1,.64,1.79v3.86H80V49a1.91,1.91,0,0,0-.49-1.39,1.82,1.82,0,0,0-1.37-.5,2.13,2.13,0,0,0-1.55.6A2.46,2.46,0,0,0,76,49.31v3.38h-.8V46.41H76v1.46a2.34,2.34,0,0,1,1-1.1,3,3,0,0,1,1.53-.38A2.37,2.37,0,0,1,80.21,47Z"/><path class="logo-4" d="M81,52.79h-1V49a1.82,1.82,0,0,0-.46-1.32,1.73,1.73,0,0,0-1.3-.47,2,2,0,0,0-1.48.57,2.37,2.37,0,0,0-.64,1.52v3.48h-1V46.3h1v1.16a2.36,2.36,0,0,1,.8-.79,3.16,3.16,0,0,1,1.58-.4,2.47,2.47,0,0,1,1.84.68h0A2.56,2.56,0,0,1,81,48.83Zm-.82-.2h.62V48.83a2.37,2.37,0,0,0-.61-1.72,2.28,2.28,0,0,0-1.7-.62,3,3,0,0,0-1.48.37,2.25,2.25,0,0,0-.91,1.06l-.19.43V46.51h-.6v6.09h.6V49.31a2.57,2.57,0,0,1,.7-1.65A2.23,2.23,0,0,1,78.18,47a1.93,1.93,0,0,1,1.44.53A2,2,0,0,1,80.14,49Z"/><path class="logo-4" d="M87,52.69V51.64a2.28,2.28,0,0,1-1,.82,3.34,3.34,0,0,1-1.38.27,2.45,2.45,0,0,1-1.12-.25,1.79,1.79,0,0,1-1-1.65,1.51,1.51,0,0,1,.63-1.28,2.85,2.85,0,0,1,1.73-.47h2.11V48.6a1.49,1.49,0,0,0-.44-1.15,1.85,1.85,0,0,0-1.3-.41,3.4,3.4,0,0,0-2,.76l-.36-.55A5.37,5.37,0,0,1,84,46.59a3.85,3.85,0,0,1,1.32-.21A2.52,2.52,0,0,1,87.1,47a2.07,2.07,0,0,1,.64,1.58v4.16Zm-.8-1a1.91,1.91,0,0,0,.79-1.1v-.86h-2a2.35,2.35,0,0,0-1.26.28.92.92,0,0,0-.43.83,1.12,1.12,0,0,0,.41.91,1.67,1.67,0,0,0,1.1.34A2.5,2.5,0,0,0,86.15,51.67Z"/><path class="logo-4" d="M84.59,52.83a2.56,2.56,0,0,1-1.17-.26,1.89,1.89,0,0,1-1.07-1.74A1.61,1.61,0,0,1,83,49.47,3,3,0,0,1,84.82,49h2V48.6a1.4,1.4,0,0,0-.41-1.08,1.76,1.76,0,0,0-1.23-.38,3.32,3.32,0,0,0-2,.74l-.09.06-.47-.72.08-.06A5.48,5.48,0,0,1,84,46.5a4,4,0,0,1,1.35-.22,2.63,2.63,0,0,1,1.83.6,2.17,2.17,0,0,1,.67,1.65v4.27h-1v-.86a2.37,2.37,0,0,1-.83.62A3.45,3.45,0,0,1,84.59,52.83Zm.23-3.65a2.77,2.77,0,0,0-1.67.45,1.41,1.41,0,0,0-.59,1.2,1.69,1.69,0,0,0,1,1.56,2.36,2.36,0,0,0,1.08.24,3.26,3.26,0,0,0,1.34-.26,2.19,2.19,0,0,0,.93-.79l.18-.27v1.28h.59V48.53A2,2,0,0,0,87,47a2.44,2.44,0,0,0-1.7-.54,3.77,3.77,0,0,0-1.29.2,5.16,5.16,0,0,0-1.11.59l.25.38a3.45,3.45,0,0,1,2-.71,2,2,0,0,1,1.36.43A1.59,1.59,0,0,1,87,48.6v.58Zm-.08,3a1.77,1.77,0,0,1-1.16-.36,1.22,1.22,0,0,1-.45-1,1,1,0,0,1,.48-.91,2.46,2.46,0,0,1,1.31-.29H87v1a2,2,0,0,1-.83,1.15h0A2.61,2.61,0,0,1,84.73,52.16Zm.18-2.35a2.28,2.28,0,0,0-1.21.26.82.82,0,0,0-.39.74,1,1,0,0,0,.38.83,1.58,1.58,0,0,0,1,.32,2.42,2.42,0,0,0,1.37-.37h0a1.82,1.82,0,0,0,.74-1v-.75Z"/><path class="logo-4" d="M97.14,52.69V51.64a2.28,2.28,0,0,1-1,.82,3.34,3.34,0,0,1-1.38.27,2.45,2.45,0,0,1-1.12-.25,1.79,1.79,0,0,1-1-1.65,1.51,1.51,0,0,1,.63-1.28A2.85,2.85,0,0,1,95,49.08h2.11V48.6a1.49,1.49,0,0,0-.44-1.15,1.85,1.85,0,0,0-1.3-.41,3.4,3.4,0,0,0-2,.76L93,47.24a5.37,5.37,0,0,1,1.21-.65,3.85,3.85,0,0,1,1.32-.21,2.52,2.52,0,0,1,1.76.57,2.07,2.07,0,0,1,.64,1.58v4.16Zm-.8-1a1.91,1.91,0,0,0,.79-1.1v-.86h-2a2.35,2.35,0,0,0-1.26.28.92.92,0,0,0-.43.83,1.12,1.12,0,0,0,.41.91,1.67,1.67,0,0,0,1.1.34A2.5,2.5,0,0,0,96.34,51.67Z"/><path class="logo-4" d="M94.78,52.83a2.56,2.56,0,0,1-1.17-.26,1.89,1.89,0,0,1-1.07-1.74,1.61,1.61,0,0,1,.67-1.36A3,3,0,0,1,95,49h2V48.6a1.4,1.4,0,0,0-.41-1.08,1.76,1.76,0,0,0-1.23-.38,3.32,3.32,0,0,0-2,.74l-.09.06-.47-.72.08-.06a5.48,5.48,0,0,1,1.23-.67,4,4,0,0,1,1.35-.22,2.63,2.63,0,0,1,1.83.6A2.17,2.17,0,0,1,98,48.53v4.27H97v-.86a2.37,2.37,0,0,1-.83.62A3.45,3.45,0,0,1,94.78,52.83ZM95,49.18a2.77,2.77,0,0,0-1.67.45,1.41,1.41,0,0,0-.59,1.2,1.69,1.69,0,0,0,1,1.56,2.36,2.36,0,0,0,1.08.24,3.26,3.26,0,0,0,1.34-.26,2.19,2.19,0,0,0,.93-.79l.18-.27v1.28h.59V48.53a2,2,0,0,0-.6-1.5,2.44,2.44,0,0,0-1.7-.54,3.77,3.77,0,0,0-1.29.2,5.16,5.16,0,0,0-1.11.59l.25.38a3.45,3.45,0,0,1,2-.71,2,2,0,0,1,1.36.43,1.59,1.59,0,0,1,.48,1.23v.58Zm-.08,3a1.77,1.77,0,0,1-1.16-.36,1.22,1.22,0,0,1-.45-1,1,1,0,0,1,.48-.91,2.46,2.46,0,0,1,1.31-.29h2.13v1a2,2,0,0,1-.83,1.15h0A2.61,2.61,0,0,1,94.92,52.16Zm.18-2.35a2.28,2.28,0,0,0-1.21.26.82.82,0,0,0-.39.74,1,1,0,0,0,.38.83,1.58,1.58,0,0,0,1,.32,2.42,2.42,0,0,0,1.37-.37h0a1.82,1.82,0,0,0,.74-1v-.75Z"/><path class="logo-4" d="M100.14,43.79h.8v8.9h-.8Z"/><path class="logo-4" d="M101,52.79h-1v-9.1h1Zm-.8-.2h.6v-8.7h-.6Z"/><path class="logo-4" d="M106.52,52.26a2.57,2.57,0,0,1-1.39.47,1.49,1.49,0,0,1-1.14-.44,1.87,1.87,0,0,1-.42-1.33V47.21h-.9v-.62h.91V45h.8v1.62h2v.64h-2v3.61q0,1.16.86,1.16a2.07,2.07,0,0,0,1-.34Z"/><path class="logo-4" d="M105.14,52.83a1.6,1.6,0,0,1-1.22-.48,2,2,0,0,1-.45-1.4V47.31h-.9l0-.82h.91V44.87h1v1.62h2v.84h-2v3.51c0,.72.25,1.06.76,1.06a2,2,0,0,0,1-.32l.1-.06.31.8-.07,0A2.68,2.68,0,0,1,105.14,52.83Zm-2.37-5.72h.9V51a1.79,1.79,0,0,0,.39,1.26,1.4,1.4,0,0,0,1.07.41,2.46,2.46,0,0,0,1.27-.41l-.17-.43a2.09,2.09,0,0,1-1,.29c-.44,0-1-.22-1-1.26V47.11h2v-.44h-2V45.07h-.6v1.62h-.91Z"/><path class="logo-4" d="M112.56,47.31a3.58,3.58,0,0,1,.71,2.5H108a2.42,2.42,0,0,0,.74,1.63,2.3,2.3,0,0,0,1.63.62,2.86,2.86,0,0,0,1.12-.22,2.57,2.57,0,0,0,.89-.61l.46.46a3.12,3.12,0,0,1-1.1.76,3.6,3.6,0,0,1-1.41.27,3.22,3.22,0,0,1-1.62-.4,2.88,2.88,0,0,1-1.11-1.12,3.55,3.55,0,0,1,0-3.28,2.87,2.87,0,0,1,1.11-1.13,3.18,3.18,0,0,1,1.6-.4A2.73,2.73,0,0,1,112.56,47.31Zm0,1.88a2.3,2.3,0,0,0-.65-1.57,2.12,2.12,0,0,0-1.55-.58,2.25,2.25,0,0,0-1.58.59,2.36,2.36,0,0,0-.73,1.56Z"/><path class="logo-4" d="M110.35,52.82a3.34,3.34,0,0,1-1.67-.42,3,3,0,0,1-1.15-1.16,3.65,3.65,0,0,1,0-3.38,3,3,0,0,1,1.15-1.17,3.29,3.29,0,0,1,1.65-.42,2.84,2.84,0,0,1,2.31,1h0a3.7,3.7,0,0,1,.73,2.57v.1h-5.23a2.3,2.3,0,0,0,.7,1.45,2.21,2.21,0,0,0,1.56.59,2.77,2.77,0,0,0,1.08-.21,2.49,2.49,0,0,0,.85-.59l.07-.08.6.6-.07.07a3.23,3.23,0,0,1-1.13.79A3.72,3.72,0,0,1,110.35,52.82Zm0-6.34a3.1,3.1,0,0,0-1.55.39A2.78,2.78,0,0,0,107.71,48a3.45,3.45,0,0,0,0,3.19,2.79,2.79,0,0,0,1.07,1.08,3.14,3.14,0,0,0,1.57.39,3.51,3.51,0,0,0,1.37-.26,3,3,0,0,0,1-.67l-.32-.32a2.68,2.68,0,0,1-.85.56,3,3,0,0,1-1.15.22,2.4,2.4,0,0,1-1.7-.65,2.52,2.52,0,0,1-.78-1.69v-.11h5.26a3.45,3.45,0,0,0-.69-2.34h0A2.65,2.65,0,0,0,110.33,46.48Zm2.33,2.81h-4.74v-.11a2.47,2.47,0,0,1,.76-1.62,2.35,2.35,0,0,1,1.65-.61,2.23,2.23,0,0,1,1.62.61,2.41,2.41,0,0,1,.68,1.63Zm-4.52-.2h4.3a2.18,2.18,0,0,0-.62-1.39,2,2,0,0,0-1.48-.55,2.16,2.16,0,0,0-1.52.56A2.24,2.24,0,0,0,108.14,49.09Z"/><path class="logo-4" d="M116.65,46.77a2.58,2.58,0,0,1,1.4-.39v.76a2.15,2.15,0,0,0-1.6.58,2.45,2.45,0,0,0-.69,1.61v3.36h-.8V46.41h.8v1.46A2.41,2.41,0,0,1,116.65,46.77Z"/><path class="logo-4" d="M115.85,52.79h-1V46.3h1v1.15a2.39,2.39,0,0,1,.74-.77h0a2.7,2.7,0,0,1,1.45-.41h.1v1H118a2,2,0,0,0-1.53.55,2.37,2.37,0,0,0-.66,1.55Zm-.8-.2h.6V49.33a2.56,2.56,0,0,1,.72-1.69,2.22,2.22,0,0,1,1.57-.61v-.55a2.45,2.45,0,0,0-1.24.37h0a2.32,2.32,0,0,0-.86,1.05l-.19.44V46.51H115Z"/><path class="logo-4" d="M124.4,47a2.45,2.45,0,0,1,.64,1.79v3.86h-.82V49a1.91,1.91,0,0,0-.49-1.39,1.82,1.82,0,0,0-1.37-.5,2.13,2.13,0,0,0-1.55.6,2.46,2.46,0,0,0-.67,1.58v3.38h-.8V46.41h.8v1.46a2.34,2.34,0,0,1,1-1.1,3,3,0,0,1,1.53-.38A2.37,2.37,0,0,1,124.4,47Z"/><path class="logo-4" d="M125.14,52.79h-1V49a1.82,1.82,0,0,0-.46-1.32,1.73,1.73,0,0,0-1.3-.47,2,2,0,0,0-1.48.57,2.37,2.37,0,0,0-.64,1.52v3.48h-1V46.3h1v1.16a2.36,2.36,0,0,1,.8-.79,3.16,3.16,0,0,1,1.58-.4,2.47,2.47,0,0,1,1.84.68h0a2.56,2.56,0,0,1,.67,1.86Zm-.82-.2h.62V48.83a2.37,2.37,0,0,0-.61-1.72,2.28,2.28,0,0,0-1.7-.62,3,3,0,0,0-1.48.37,2.25,2.25,0,0,0-.91,1.06l-.19.43V46.51h-.6v6.09h.6V49.31a2.57,2.57,0,0,1,.7-1.65,2.23,2.23,0,0,1,1.62-.63,1.93,1.93,0,0,1,1.44.53,2,2,0,0,1,.52,1.46Z"/><path class="logo-4" d="M131.14,52.69V51.64a2.28,2.28,0,0,1-1,.82,3.34,3.34,0,0,1-1.38.27,2.45,2.45,0,0,1-1.12-.25,1.79,1.79,0,0,1-1-1.65,1.51,1.51,0,0,1,.63-1.28,2.85,2.85,0,0,1,1.73-.47h2.11V48.6a1.49,1.49,0,0,0-.44-1.15,1.85,1.85,0,0,0-1.3-.41,3.4,3.4,0,0,0-2,.76l-.36-.55a5.37,5.37,0,0,1,1.21-.65,3.85,3.85,0,0,1,1.32-.21,2.52,2.52,0,0,1,1.76.57,2.07,2.07,0,0,1,.64,1.58v4.16Zm-.8-1a1.91,1.91,0,0,0,.79-1.1v-.86h-2a2.35,2.35,0,0,0-1.26.28.92.92,0,0,0-.43.83,1.12,1.12,0,0,0,.41.91,1.67,1.67,0,0,0,1.1.34A2.5,2.5,0,0,0,130.34,51.67Z"/><path class="logo-4" d="M128.77,52.83a2.56,2.56,0,0,1-1.17-.26,1.89,1.89,0,0,1-1.07-1.74,1.61,1.61,0,0,1,.67-1.36A3,3,0,0,1,129,49h2V48.6a1.4,1.4,0,0,0-.41-1.08,1.76,1.76,0,0,0-1.23-.38,3.32,3.32,0,0,0-2,.74l-.09.06-.47-.72.08-.06a5.48,5.48,0,0,1,1.23-.67,4,4,0,0,1,1.35-.22,2.63,2.63,0,0,1,1.83.6,2.17,2.17,0,0,1,.67,1.65v4.27h-1v-.86a2.37,2.37,0,0,1-.83.62A3.45,3.45,0,0,1,128.77,52.83Zm.23-3.65a2.77,2.77,0,0,0-1.67.45,1.41,1.41,0,0,0-.59,1.2,1.69,1.69,0,0,0,1,1.56,2.36,2.36,0,0,0,1.08.24,3.26,3.26,0,0,0,1.34-.26,2.19,2.19,0,0,0,.93-.79l.18-.27v1.28h.59V48.53a2,2,0,0,0-.6-1.5,2.44,2.44,0,0,0-1.7-.54,3.77,3.77,0,0,0-1.29.2,5.16,5.16,0,0,0-1.11.59l.25.38a3.45,3.45,0,0,1,2-.71,2,2,0,0,1,1.36.43,1.59,1.59,0,0,1,.48,1.23v.58Zm-.08,3a1.77,1.77,0,0,1-1.16-.36,1.22,1.22,0,0,1-.45-1,1,1,0,0,1,.48-.91,2.46,2.46,0,0,1,1.31-.29h2.13v1a2,2,0,0,1-.83,1.15h0A2.61,2.61,0,0,1,128.92,52.16Zm.18-2.35a2.28,2.28,0,0,0-1.21.26.82.82,0,0,0-.39.74,1,1,0,0,0,.38.83,1.58,1.58,0,0,0,1,.32,2.42,2.42,0,0,0,1.37-.37h0a1.82,1.82,0,0,0,.74-1v-.75Z"/><path class="logo-4" d="M137.24,52.26a2.57,2.57,0,0,1-1.39.47,1.49,1.49,0,0,1-1.14-.44,1.87,1.87,0,0,1-.42-1.33V47.21h-.9v-.62h.91V45h.8v1.62h2v.64h-2v3.61q0,1.16.86,1.16a2.07,2.07,0,0,0,1-.34Z"/><path class="logo-4" d="M135.86,52.83a1.6,1.6,0,0,1-1.22-.48,2,2,0,0,1-.45-1.4V47.31h-.9l0-.82h.91V44.87h1v1.62h2v.84h-2v3.51c0,.72.25,1.06.76,1.06a2,2,0,0,0,1-.32l.1-.06.31.8-.07,0A2.68,2.68,0,0,1,135.86,52.83Zm-2.37-5.72h.9V51a1.79,1.79,0,0,0,.39,1.26,1.4,1.4,0,0,0,1.07.41,2.46,2.46,0,0,0,1.27-.41l-.17-.43a2.09,2.09,0,0,1-1,.29c-.44,0-1-.22-1-1.26V47.11h2v-.44h-2V45.07h-.6v1.62h-.91Z"/><path class="logo-4" d="M139.5,44.19a.56.56,0,0,1,.16.4.57.57,0,0,1-.16.41.52.52,0,0,1-.39.17.54.54,0,0,1-.4-.17.57.57,0,0,1-.16-.41.55.55,0,0,1,.56-.56A.53.53,0,0,1,139.5,44.19Zm-.8,2.21h.8v6.29h-.8Z"/><path class="logo-4" d="M139.6,52.79h-1V46.3h1Zm-.8-.2h.6V46.51h-.6Zm.31-7.32a.63.63,0,0,1-.47-.2.66.66,0,0,1-.19-.48.65.65,0,0,1,.66-.66.62.62,0,0,1,.47.19.65.65,0,0,1,.18.47.66.66,0,0,1-.19.48A.62.62,0,0,1,139.1,45.27Zm0-1.14a.45.45,0,0,0-.46.46.47.47,0,0,0,.13.34.44.44,0,0,0,.33.14.42.42,0,0,0,.32-.14.47.47,0,0,0,.13-.34.46.46,0,0,0-.13-.33A.43.43,0,0,0,139.1,44.13Z"/><path class="logo-4" d="M140.72,46.41h.86l2.09,5.48,2.06-5.48h.84l-2.5,6.29h-.85Z"/><path class="logo-4" d="M144.15,52.79h-1l0-.06-2.56-6.43h1.08l2,5.3,2-5.3h1.06Zm-.85-.2H144l2.42-6.09h-.62l-2.13,5.67-2.16-5.67h-.65Z"/><path class="logo-4" d="M151.52,52.69V51.64a2.28,2.28,0,0,1-1,.82,3.34,3.34,0,0,1-1.38.27,2.45,2.45,0,0,1-1.12-.25,1.79,1.79,0,0,1-1-1.65,1.51,1.51,0,0,1,.63-1.28,2.85,2.85,0,0,1,1.73-.47h2.11V48.6a1.49,1.49,0,0,0-.44-1.15,1.85,1.85,0,0,0-1.3-.41,3.4,3.4,0,0,0-2,.76l-.36-.55a5.37,5.37,0,0,1,1.21-.65,3.85,3.85,0,0,1,1.32-.21,2.52,2.52,0,0,1,1.76.57,2.07,2.07,0,0,1,.64,1.58v4.16Zm-.8-1a1.91,1.91,0,0,0,.79-1.1v-.86h-2a2.35,2.35,0,0,0-1.26.28.92.92,0,0,0-.43.83,1.12,1.12,0,0,0,.41.91,1.67,1.67,0,0,0,1.1.34A2.5,2.5,0,0,0,150.73,51.67Z"/><path class="logo-4" d="M149.16,52.83a2.56,2.56,0,0,1-1.17-.26,1.89,1.89,0,0,1-1.07-1.74,1.61,1.61,0,0,1,.67-1.36,3,3,0,0,1,1.79-.49h2V48.6a1.4,1.4,0,0,0-.41-1.08,1.76,1.76,0,0,0-1.23-.38,3.32,3.32,0,0,0-2,.74l-.09.06-.47-.72.08-.06a5.48,5.48,0,0,1,1.23-.67,4,4,0,0,1,1.35-.22,2.63,2.63,0,0,1,1.83.6,2.17,2.17,0,0,1,.67,1.65v4.27h-1v-.86a2.37,2.37,0,0,1-.83.62A3.45,3.45,0,0,1,149.16,52.83Zm.23-3.65a2.77,2.77,0,0,0-1.67.45,1.41,1.41,0,0,0-.59,1.2,1.69,1.69,0,0,0,1,1.56,2.36,2.36,0,0,0,1.08.24,3.26,3.26,0,0,0,1.34-.26,2.19,2.19,0,0,0,.93-.79l.18-.27v1.28h.59V48.53a2,2,0,0,0-.6-1.5,2.44,2.44,0,0,0-1.7-.54,3.77,3.77,0,0,0-1.29.2,5.16,5.16,0,0,0-1.11.59l.25.38a3.45,3.45,0,0,1,2-.71,2,2,0,0,1,1.36.43,1.59,1.59,0,0,1,.48,1.23v.58Zm-.08,3a1.77,1.77,0,0,1-1.16-.36,1.22,1.22,0,0,1-.45-1,1,1,0,0,1,.48-.91,2.46,2.46,0,0,1,1.31-.29h2.13v1a2,2,0,0,1-.83,1.15h0A2.61,2.61,0,0,1,149.3,52.16Zm.18-2.35a2.28,2.28,0,0,0-1.21.26.82.82,0,0,0-.39.74,1,1,0,0,0,.38.83,1.58,1.58,0,0,0,1,.32,2.42,2.42,0,0,0,1.37-.37h0a1.82,1.82,0,0,0,.74-1v-.75Z"/><path class="logo-4" d="M158.57,44.19a.56.56,0,0,1,.16.4.57.57,0,0,1-.16.41.52.52,0,0,1-.39.17.54.54,0,0,1-.4-.17.57.57,0,0,1-.16-.41.55.55,0,0,1,.56-.56A.53.53,0,0,1,158.57,44.19Zm-.8,2.21h.8v6.29h-.8Z"/><path class="logo-4" d="M158.67,52.79h-1V46.3h1Zm-.8-.2h.6V46.51h-.6Zm.31-7.32a.63.63,0,0,1-.47-.2.66.66,0,0,1-.19-.48.65.65,0,0,1,.66-.66.62.62,0,0,1,.47.19.65.65,0,0,1,.18.47.66.66,0,0,1-.19.48A.62.62,0,0,1,158.17,45.27Zm0-1.14a.45.45,0,0,0-.46.46.47.47,0,0,0,.13.34.44.44,0,0,0,.33.14.42.42,0,0,0,.32-.14.47.47,0,0,0,.13-.34.46.46,0,0,0-.13-.33A.43.43,0,0,0,158.17,44.13Z"/><path class="logo-4" d="M166,47a2.45,2.45,0,0,1,.64,1.79v3.86h-.82V49a1.91,1.91,0,0,0-.49-1.39,1.82,1.82,0,0,0-1.37-.5,2.13,2.13,0,0,0-1.55.6,2.46,2.46,0,0,0-.67,1.58v3.38h-.8V46.41h.8v1.46a2.34,2.34,0,0,1,1-1.1,3,3,0,0,1,1.53-.38A2.37,2.37,0,0,1,166,47Z"/><path class="logo-4" d="M166.71,52.79h-1V49a1.82,1.82,0,0,0-.46-1.32,1.73,1.73,0,0,0-1.3-.47,2,2,0,0,0-1.48.57,2.37,2.37,0,0,0-.64,1.52v3.48h-1V46.3h1v1.16a2.36,2.36,0,0,1,.8-.79,3.16,3.16,0,0,1,1.58-.4A2.47,2.47,0,0,1,166,47h0a2.56,2.56,0,0,1,.67,1.86Zm-.82-.2h.62V48.83a2.37,2.37,0,0,0-.61-1.72,2.28,2.28,0,0,0-1.7-.62,3,3,0,0,0-1.48.37,2.25,2.25,0,0,0-.91,1.06l-.19.43V46.51H161v6.09h.6V49.31a2.57,2.57,0,0,1,.7-1.65,2.23,2.23,0,0,1,1.62-.63,1.93,1.93,0,0,1,1.44.53,2,2,0,0,1,.52,1.46Z"/><path class="logo-4" d="M171.92,52.26a2.57,2.57,0,0,1-1.39.47,1.49,1.49,0,0,1-1.14-.44A1.87,1.87,0,0,1,169,51V47.21h-.9v-.62H169V45h.8v1.62h2v.64h-2v3.61q0,1.16.86,1.16a2.07,2.07,0,0,0,1-.34Z"/><path class="logo-4" d="M170.54,52.83a1.6,1.6,0,0,1-1.22-.48,2,2,0,0,1-.45-1.4V47.31H168l0-.82h.91V44.87h1v1.62h2v.84h-2v3.51c0,.72.25,1.06.76,1.06a2,2,0,0,0,1-.32l.1-.06.31.8-.07,0A2.68,2.68,0,0,1,170.54,52.83Zm-2.37-5.72h.9V51a1.79,1.79,0,0,0,.39,1.26,1.4,1.4,0,0,0,1.07.41,2.46,2.46,0,0,0,1.27-.41l-.17-.43a2.09,2.09,0,0,1-1,.29c-.44,0-1-.22-1-1.26V47.11h2v-.44h-2V45.07h-.6v1.62h-.91Z"/><path class="logo-4" d="M178,47.31a3.58,3.58,0,0,1,.71,2.5h-5.24a2.42,2.42,0,0,0,.74,1.63,2.3,2.3,0,0,0,1.63.62,2.86,2.86,0,0,0,1.12-.22,2.57,2.57,0,0,0,.89-.61l.46.46a3.12,3.12,0,0,1-1.1.76,3.6,3.6,0,0,1-1.41.27,3.22,3.22,0,0,1-1.62-.4A2.88,2.88,0,0,1,173,51.19a3.55,3.55,0,0,1,0-3.28,2.87,2.87,0,0,1,1.11-1.13,3.18,3.18,0,0,1,1.6-.4A2.73,2.73,0,0,1,178,47.31Zm0,1.88a2.3,2.3,0,0,0-.65-1.57,2.12,2.12,0,0,0-1.55-.58,2.25,2.25,0,0,0-1.58.59,2.36,2.36,0,0,0-.73,1.56Z"/><path class="logo-4" d="M175.75,52.82a3.34,3.34,0,0,1-1.67-.42,3,3,0,0,1-1.15-1.16,3.65,3.65,0,0,1,0-3.38,3,3,0,0,1,1.15-1.17,3.29,3.29,0,0,1,1.65-.42,2.84,2.84,0,0,1,2.31,1h0a3.7,3.7,0,0,1,.73,2.57v.1h-5.23a2.3,2.3,0,0,0,.7,1.45,2.21,2.21,0,0,0,1.56.59,2.77,2.77,0,0,0,1.08-.21,2.49,2.49,0,0,0,.85-.59l.07-.08.6.6-.07.07a3.23,3.23,0,0,1-1.13.79A3.72,3.72,0,0,1,175.75,52.82Zm0-6.34a3.1,3.1,0,0,0-1.55.39A2.78,2.78,0,0,0,173.11,48a3.45,3.45,0,0,0,0,3.19,2.79,2.79,0,0,0,1.07,1.08,3.14,3.14,0,0,0,1.57.39,3.51,3.51,0,0,0,1.37-.26,3,3,0,0,0,1-.67l-.32-.32a2.68,2.68,0,0,1-.85.56,3,3,0,0,1-1.15.22,2.4,2.4,0,0,1-1.7-.65,2.52,2.52,0,0,1-.78-1.69v-.11h5.26a3.45,3.45,0,0,0-.69-2.34h0A2.65,2.65,0,0,0,175.73,46.48Zm2.33,2.81h-4.74v-.11a2.47,2.47,0,0,1,.76-1.62,2.35,2.35,0,0,1,1.65-.61,2.23,2.23,0,0,1,1.62.61,2.41,2.41,0,0,1,.68,1.63Zm-4.52-.2h4.3a2.18,2.18,0,0,0-.62-1.39,2,2,0,0,0-1.48-.55,2.16,2.16,0,0,0-1.52.56A2.24,2.24,0,0,0,173.54,49.09Z"/><path class="logo-4" d="M180.41,43.79h.8v8.9h-.8Z"/><path class="logo-4" d="M181.31,52.79h-1v-9.1h1Zm-.8-.2h.6v-8.7h-.6Z"/><path class="logo-4" d="M184.43,44.19a.56.56,0,0,1,.16.4.57.57,0,0,1-.16.41.52.52,0,0,1-.39.17.54.54,0,0,1-.4-.17.57.57,0,0,1-.16-.41A.55.55,0,0,1,184,44,.53.53,0,0,1,184.43,44.19Zm-.8,2.21h.8v6.29h-.8Z"/><path class="logo-4" d="M184.53,52.79h-1V46.3h1Zm-.8-.2h.6V46.51h-.6Zm.31-7.32a.63.63,0,0,1-.47-.2.66.66,0,0,1-.19-.48.65.65,0,0,1,.66-.66.62.62,0,0,1,.47.19.65.65,0,0,1,.18.47.66.66,0,0,1-.19.48A.62.62,0,0,1,184,45.27Zm0-1.14a.45.45,0,0,0-.46.46.47.47,0,0,0,.13.34.44.44,0,0,0,.33.14.42.42,0,0,0,.32-.14.47.47,0,0,0,.13-.34.46.46,0,0,0-.13-.33A.43.43,0,0,0,184,44.13Z"/><path class="logo-4" d="M192.2,46.41V52a3.21,3.21,0,0,1-.38,1.6,2.58,2.58,0,0,1-1.1,1,3.57,3.57,0,0,1-1.65.37,4,4,0,0,1-2.58-1l.38-.58a3.61,3.61,0,0,0,1,.64,3,3,0,0,0,1.15.22,2.35,2.35,0,0,0,1.72-.63A2.26,2.26,0,0,0,191.4,52V51a2.49,2.49,0,0,1-1,1,2.75,2.75,0,0,1-1.44.37,2.86,2.86,0,0,1-1.49-.39,2.71,2.71,0,0,1-1-1.08,3.29,3.29,0,0,1-.37-1.57,3.25,3.25,0,0,1,.37-1.56,2.67,2.67,0,0,1,1-1.07,2.93,2.93,0,0,1,1.5-.38,2.73,2.73,0,0,1,1.43.37,2.54,2.54,0,0,1,1,1V46.41Zm-1.9,5.07a2.13,2.13,0,0,0,.8-.85,2.53,2.53,0,0,0,.29-1.21,2.56,2.56,0,0,0-.29-1.22,2.13,2.13,0,0,0-.8-.85,2.37,2.37,0,0,0-2.33,0,2.17,2.17,0,0,0-.81.85,2.51,2.51,0,0,0-.29,1.22,2.48,2.48,0,0,0,.29,1.22,2.19,2.19,0,0,0,.8.84,2.38,2.38,0,0,0,2.33,0Z"/><path class="logo-4" d="M189.07,55.15a4.14,4.14,0,0,1-2.64-1l-.07-.06.5-.75.09.08a3.51,3.51,0,0,0,1,.62,2.92,2.92,0,0,0,1.11.21,2.27,2.27,0,0,0,1.65-.6A2.17,2.17,0,0,0,191.3,52v-.66a2.57,2.57,0,0,1-.81.75,2.86,2.86,0,0,1-1.49.39,3,3,0,0,1-1.55-.4A2.82,2.82,0,0,1,186.4,51a3.62,3.62,0,0,1,0-3.22,2.78,2.78,0,0,1,1.06-1.11,3,3,0,0,1,1.55-.4,2.84,2.84,0,0,1,1.48.38,2.6,2.6,0,0,1,.81.76V46.3h1V52a3.32,3.32,0,0,1-.4,1.65,2.69,2.69,0,0,1-1.14,1.09A3.68,3.68,0,0,1,189.07,55.15Zm-2.45-1.08a3.92,3.92,0,0,0,2.45.88,3.49,3.49,0,0,0,1.6-.35,2.5,2.5,0,0,0,1.06-1A3.12,3.12,0,0,0,192.1,52V46.51h-.6v1.69l-.19-.36a2.46,2.46,0,0,0-.92-1,2.64,2.64,0,0,0-1.38-.35,2.84,2.84,0,0,0-1.45.37,2.58,2.58,0,0,0-1,1,3.17,3.17,0,0,0-.35,1.51,3.2,3.2,0,0,0,.35,1.52,2.62,2.62,0,0,0,1,1,2.78,2.78,0,0,0,1.44.38,2.66,2.66,0,0,0,1.39-.36,2.41,2.41,0,0,0,.92-1l.19-.37V52a2.36,2.36,0,0,1-.67,1.76,2.46,2.46,0,0,1-1.79.66,3.13,3.13,0,0,1-1.19-.22,3.68,3.68,0,0,1-.95-.58Zm2.52-2.18a2.35,2.35,0,0,1-1.22-.32,2.3,2.3,0,0,1-.84-.88,2.59,2.59,0,0,1-.31-1.27,2.62,2.62,0,0,1,.31-1.27,2.27,2.27,0,0,1,.85-.88,2.47,2.47,0,0,1,2.43,0,2.23,2.23,0,0,1,.84.89,2.67,2.67,0,0,1,.3,1.27,2.65,2.65,0,0,1-.3,1.26,2.23,2.23,0,0,1-.84.89h0A2.35,2.35,0,0,1,189.14,51.88Zm0-4.74a2.15,2.15,0,0,0-1.11.29,2.08,2.08,0,0,0-.77.81,2.43,2.43,0,0,0-.28,1.18,2.39,2.39,0,0,0,.28,1.17,2.11,2.11,0,0,0,.77.8,2.28,2.28,0,0,0,2.23,0,2,2,0,0,0,.77-.81,2.45,2.45,0,0,0,.28-1.17,2.47,2.47,0,0,0-.28-1.18,2,2,0,0,0-.77-.81A2.16,2.16,0,0,0,189.14,47.14Z"/><path class="logo-4" d="M199.07,47.31a3.58,3.58,0,0,1,.71,2.5h-5.24a2.42,2.42,0,0,0,.74,1.63,2.3,2.3,0,0,0,1.63.62,2.86,2.86,0,0,0,1.12-.22,2.57,2.57,0,0,0,.89-.61l.46.46a3.12,3.12,0,0,1-1.1.76,3.6,3.6,0,0,1-1.41.27,3.22,3.22,0,0,1-1.62-.4,2.88,2.88,0,0,1-1.11-1.12,3.55,3.55,0,0,1,0-3.28,2.87,2.87,0,0,1,1.11-1.13,3.18,3.18,0,0,1,1.6-.4A2.73,2.73,0,0,1,199.07,47.31Zm0,1.88a2.3,2.3,0,0,0-.65-1.57,2.12,2.12,0,0,0-1.55-.58,2.25,2.25,0,0,0-1.58.59,2.36,2.36,0,0,0-.73,1.56Z"/><path class="logo-4" d="M196.86,52.82a3.34,3.34,0,0,1-1.67-.42A3,3,0,0,1,194,51.24a3.65,3.65,0,0,1,0-3.38,3,3,0,0,1,1.15-1.17,3.29,3.29,0,0,1,1.65-.42,2.84,2.84,0,0,1,2.31,1h0a3.7,3.7,0,0,1,.73,2.57v.1h-5.23a2.3,2.3,0,0,0,.7,1.45,2.21,2.21,0,0,0,1.56.59,2.77,2.77,0,0,0,1.08-.21,2.49,2.49,0,0,0,.85-.59l.07-.08.6.6-.07.07a3.23,3.23,0,0,1-1.13.79A3.72,3.72,0,0,1,196.86,52.82Zm0-6.34a3.1,3.1,0,0,0-1.55.39A2.78,2.78,0,0,0,194.22,48a3.45,3.45,0,0,0,0,3.19,2.79,2.79,0,0,0,1.07,1.08,3.14,3.14,0,0,0,1.57.39,3.51,3.51,0,0,0,1.37-.26,3,3,0,0,0,1-.67l-.32-.32a2.68,2.68,0,0,1-.85.56,3,3,0,0,1-1.15.22,2.4,2.4,0,0,1-1.7-.65,2.52,2.52,0,0,1-.78-1.69v-.11h5.26a3.45,3.45,0,0,0-.69-2.34h0A2.65,2.65,0,0,0,196.84,46.48Zm2.33,2.81h-4.74v-.11a2.47,2.47,0,0,1,.76-1.62,2.35,2.35,0,0,1,1.65-.61,2.23,2.23,0,0,1,1.62.61,2.41,2.41,0,0,1,.68,1.63Zm-4.52-.2h4.3a2.18,2.18,0,0,0-.62-1.39,2,2,0,0,0-1.48-.55,2.16,2.16,0,0,0-1.52.56A2.24,2.24,0,0,0,194.64,49.09Z"/><path class="logo-4" d="M206.51,47a2.45,2.45,0,0,1,.64,1.79v3.86h-.82V49a1.91,1.91,0,0,0-.49-1.39,1.82,1.82,0,0,0-1.37-.5,2.13,2.13,0,0,0-1.55.6,2.46,2.46,0,0,0-.67,1.58v3.38h-.8V46.41h.8v1.46a2.34,2.34,0,0,1,1-1.1,3,3,0,0,1,1.53-.38A2.37,2.37,0,0,1,206.51,47Z"/><path class="logo-4" d="M207.26,52.79h-1V49a1.82,1.82,0,0,0-.46-1.32,1.73,1.73,0,0,0-1.3-.47,2,2,0,0,0-1.48.57,2.37,2.37,0,0,0-.64,1.52v3.48h-1V46.3h1v1.16a2.36,2.36,0,0,1,.8-.79,3.16,3.16,0,0,1,1.58-.4,2.47,2.47,0,0,1,1.84.68h0a2.56,2.56,0,0,1,.67,1.86Zm-.82-.2h.62V48.83a2.37,2.37,0,0,0-.61-1.72,2.28,2.28,0,0,0-1.7-.62,3,3,0,0,0-1.48.37,2.25,2.25,0,0,0-.91,1.06l-.19.43V46.51h-.6v6.09h.6V49.31a2.57,2.57,0,0,1,.7-1.65,2.23,2.23,0,0,1,1.62-.63,1.93,1.93,0,0,1,1.44.53,2,2,0,0,1,.52,1.46Z"/><path class="logo-4" d="M212.47,52.26a2.57,2.57,0,0,1-1.39.47,1.49,1.49,0,0,1-1.14-.44,1.87,1.87,0,0,1-.42-1.33V47.21h-.9v-.62h.91V45h.8v1.62h2v.64h-2v3.61q0,1.16.86,1.16a2.07,2.07,0,0,0,1-.34Z"/><path class="logo-4" d="M211.08,52.83a1.6,1.6,0,0,1-1.22-.48,2,2,0,0,1-.45-1.4V47.31h-.9l0-.82h.91V44.87h1v1.62h2v.84h-2v3.51c0,.72.25,1.06.76,1.06a2,2,0,0,0,1-.32l.1-.06.31.8-.07,0A2.68,2.68,0,0,1,211.08,52.83Zm-2.37-5.72h.9V51a1.79,1.79,0,0,0,.39,1.26,1.4,1.4,0,0,0,1.07.41,2.46,2.46,0,0,0,1.27-.41l-.17-.43a2.09,2.09,0,0,1-1,.29c-.44,0-1-.22-1-1.26V47.11h2v-.44h-2V45.07h-.6v1.62h-.91Z"/><path class="logo-4" d="M218.51,47.31a3.58,3.58,0,0,1,.71,2.5H214a2.42,2.42,0,0,0,.74,1.63,2.3,2.3,0,0,0,1.63.62,2.86,2.86,0,0,0,1.12-.22,2.57,2.57,0,0,0,.89-.61l.46.46a3.12,3.12,0,0,1-1.1.76,3.6,3.6,0,0,1-1.41.27,3.22,3.22,0,0,1-1.62-.4,2.88,2.88,0,0,1-1.11-1.12,3.55,3.55,0,0,1,0-3.28,2.87,2.87,0,0,1,1.11-1.13,3.18,3.18,0,0,1,1.6-.4A2.73,2.73,0,0,1,218.51,47.31Zm0,1.88a2.3,2.3,0,0,0-.65-1.57,2.12,2.12,0,0,0-1.55-.58,2.25,2.25,0,0,0-1.58.59,2.36,2.36,0,0,0-.73,1.56Z"/><path class="logo-4" d="M216.3,52.82a3.34,3.34,0,0,1-1.67-.42,3,3,0,0,1-1.15-1.16,3.65,3.65,0,0,1,0-3.38,3,3,0,0,1,1.15-1.17,3.29,3.29,0,0,1,1.65-.42,2.84,2.84,0,0,1,2.31,1h0a3.7,3.7,0,0,1,.73,2.57v.1h-5.23a2.3,2.3,0,0,0,.7,1.45,2.21,2.21,0,0,0,1.56.59,2.77,2.77,0,0,0,1.08-.21,2.49,2.49,0,0,0,.85-.59l.07-.08.6.6-.07.07a3.23,3.23,0,0,1-1.13.79A3.72,3.72,0,0,1,216.3,52.82Zm0-6.34a3.1,3.1,0,0,0-1.55.39A2.78,2.78,0,0,0,213.66,48a3.45,3.45,0,0,0,0,3.19,2.79,2.79,0,0,0,1.07,1.08,3.14,3.14,0,0,0,1.57.39,3.51,3.51,0,0,0,1.37-.26,3,3,0,0,0,1-.67l-.32-.32a2.68,2.68,0,0,1-.85.56,3,3,0,0,1-1.15.22,2.4,2.4,0,0,1-1.7-.65,2.52,2.52,0,0,1-.78-1.69v-.11h5.26a3.45,3.45,0,0,0-.69-2.34h0A2.65,2.65,0,0,0,216.27,46.48Zm2.33,2.81h-4.74v-.11a2.47,2.47,0,0,1,.76-1.62,2.35,2.35,0,0,1,1.65-.61,2.23,2.23,0,0,1,1.62.61,2.41,2.41,0,0,1,.68,1.63Zm-4.52-.2h4.3a2.18,2.18,0,0,0-.62-1.39,2,2,0,0,0-1.48-.55,2.16,2.16,0,0,0-1.52.56A2.24,2.24,0,0,0,214.08,49.09Z"/><polyline class="logo-5" points="47.42 16.37 30.92 36.87 12.92 22.87 0.92 35.87"/><polyline class="logo-6" points="37.42 17.37 47.42 16.37 48.42 26.37"/><path class="logo-4" d="M30.78,31a4.5,4.5,0,1,0,5,4A4.51,4.51,0,0,0,30.78,31Z"/><path class="logo-4" d="M12.27,19.77a4.5,4.5,0,1,0,5,4A4.51,4.51,0,0,0,12.27,19.77Z"/></g></g>
</svg>
