<svg xmlns="http://www.w3.org/2000/svg" viewBox="0 0 45 45">
  <defs><style>.phone-1{fill:#fff;fill-rule:evenodd;}.phone-2{fill:none;}</style></defs><title>phone</title><g id="Layer_2" data-name="Layer 2"><g id="Layer_1-2" data-name="Layer 1"><path class="phone-1" d="M30.93,27.35A2.76,2.76,0,0,0,29.16,26a2.85,2.85,0,0,0-2.17.47l-2.22,1.44-.4-.33c-.19-.15-.36-.29-.51-.43A20.3,20.3,0,0,1,20,21.83,12,12,0,0,1,19,19c.57-.33,1.1-.69,1.63-1l.59-.39a2.72,2.72,0,0,0,.85-4l-1.25-1.92L20.38,11c-.27-.43-.56-.88-.86-1.31a2.8,2.8,0,0,0-1.76-1.26,2.9,2.9,0,0,0-2.15.43h0l-2.39,1.57a4.33,4.33,0,0,0-1.83,2.43,10.39,10.39,0,0,0-.17,4.46,25.48,25.48,0,0,0,2.86,8.33,27.86,27.86,0,0,0,7.57,9,14.46,14.46,0,0,0,4.78,2.59l.36.09a4.46,4.46,0,0,0,3.65-.73l0,0a13.42,13.42,0,0,1,1.24-.83c.3-.18.61-.38.91-.59a3,3,0,0,0,1.3-1.82,2.84,2.84,0,0,0-.47-2.18Zm.78,6.54h0c-.28.2-.56.37-.86.56a15.57,15.57,0,0,0-1.36.92,2.86,2.86,0,0,1-2.37.46l-.26-.06a12.83,12.83,0,0,1-4.23-2.32,26.3,26.3,0,0,1-7.13-8.51,24,24,0,0,1-2.69-7.83,8.46,8.46,0,0,1,.12-3.76,2.72,2.72,0,0,1,1.17-1.55l2.39-1.56a1.35,1.35,0,0,1,1-.22,1.27,1.27,0,0,1,.76.59v0c.28.4.55.82.82,1.26l.43.68,1.24,1.92a1.13,1.13,0,0,1-.38,1.8l-.6.39c-.59.39-1.15.76-1.75,1.1l0,0A1.21,1.21,0,0,0,17.36,19v.06a13,13,0,0,0,1.22,3.45h0a21.76,21.76,0,0,0,4.15,5.77,7.84,7.84,0,0,0,.63.54c.19.15.36.29.51.43l.06.06a1.29,1.29,0,0,0,.54.27,1.26,1.26,0,0,0,1-.21l2.4-1.56a1.34,1.34,0,0,1,1-.25,1.21,1.21,0,0,1,.74.6h0l2.51,3.87A1.17,1.17,0,0,1,31.71,33.89Z"/><rect class="phone-2" width="45" height="45"/></g></g>
</svg>
