<svg xmlns="http://www.w3.org/2000/svg" viewBox="0 0 45 45">
  <defs><style>.session-1{fill:none;}.session-2{fill:#fff;fill-rule:evenodd;}</style></defs><title>session</title><g id="Layer_2" data-name="Layer 2"><g id="Layer_1-2" data-name="Layer 1"><rect class="session-1" width="45" height="45"/><path class="session-2" d="M35,28.9a18.79,18.79,0,0,0-4.58-2.75,24.92,24.92,0,0,1-3.52-2A12.36,12.36,0,0,0,30,16.75a11.68,11.68,0,0,0-.89-5.36c-.81-1.6-2.61-3.5-6.61-3.5s-5.81,1.9-6.61,3.5a11.66,11.66,0,0,0-.9,5.36,12.35,12.35,0,0,0,3.06,7.43,24.83,24.83,0,0,1-3.52,2A18.79,18.79,0,0,0,10,28.9C8,30.81,7.9,34,7.89,34.64a2.44,2.44,0,0,0,2.44,2.47H34.68a2.44,2.44,0,0,0,2.44-2.47c0-.62-.16-3.83-2.07-5.74m.06,6.21a.61.61,0,0,1-.43.18H10.32a.61.61,0,0,1-.61-.62c0-.31.09-3,1.53-4.48a18.57,18.57,0,0,1,4.11-2.41,20.07,20.07,0,0,0,4-2.27l1.23-1.17L19.47,23a10.57,10.57,0,0,1-2.65-6.28,10.1,10.1,0,0,1,.7-4.54c.84-1.66,2.51-2.5,5-2.5s4.15.84,5,2.5a10.11,10.11,0,0,1,.7,4.54A10.56,10.56,0,0,1,25.53,23l-1.07,1.32,1.23,1.17a20.12,20.12,0,0,0,4,2.27,18.5,18.5,0,0,1,4.11,2.41,7.12,7.12,0,0,1,1.53,4.48.61.61,0,0,1-.17.44"/></g></g>
</svg>
