<svg xmlns="http://www.w3.org/2000/svg" viewBox="499.3 4660.5 29.4 29.4">
  <defs>
    <style>
      .cls-1 {
        fill: #fff;
      }
    </style>
  </defs>
  <path id="Path_199" data-name="Path 199" class="cls-1" d="M543,178.5a14.7,14.7,0,1,0,14.7,14.7A14.724,14.724,0,0,0,543,178.5Zm7.2,12.4v.5a9.876,9.876,0,0,1-10,10,10.059,10.059,0,0,1-5.4-1.6h.8a7.526,7.526,0,0,0,4.4-1.5,3.549,3.549,0,0,1-3.3-2.4c.2,0,.4.1.7.1a2.769,2.769,0,0,0,.9-.1,3.471,3.471,0,0,1-2.8-3.5h0a2.934,2.934,0,0,0,1.6.4,3.593,3.593,0,0,1-1.6-2.9,3.743,3.743,0,0,1,.5-1.8,10.2,10.2,0,0,0,7.3,3.7,2.2,2.2,0,0,1-.1-.8,3.543,3.543,0,0,1,3.5-3.5,3.631,3.631,0,0,1,2.6,1.1,7.261,7.261,0,0,0,2.2-.9,3.581,3.581,0,0,1-1.5,1.9,6.637,6.637,0,0,0,2-.6A8.13,8.13,0,0,1,550.2,190.9Z" transform="translate(-29 4482)"/>
</svg>
